<svg width="628" height="215" viewBox="0 0 628 215" fill="none" xmlns="http://www.w3.org/2000/svg">
<path d="M0.693262 67H25.4613V211H0.693262V67ZM0.693262 0.183985H25.4613V33.592H0.693262V0.183985ZM121.363 64.12C131.731 64.12 141.523 66.136 150.739 70.168C159.955 74.008 167.923 79.288 174.643 86.008C181.555 92.728 186.931 100.696 190.771 109.912C194.803 119.128 196.819 128.92 196.819 139.288C196.819 149.656 194.803 159.352 190.771 168.376C186.931 177.4 181.555 185.368 174.643 192.28C167.923 199 159.955 204.376 150.739 208.408C141.523 212.248 131.731 214.168 121.363 214.168C110.995 214.168 101.299 212.248 92.275 208.408C83.251 204.376 75.283 199 68.371 192.28C61.651 185.368 56.275 177.4 52.243 168.376C48.403 159.352 46.483 149.656 46.483 139.288V0.471998H70.963V83.704C77.683 77.752 85.363 73.048 94.003 69.592C102.643 65.944 111.763 64.12 121.363 64.12ZM121.363 88.888C114.451 88.888 107.923 90.232 101.779 92.92C95.635 95.416 90.259 98.968 85.651 103.576C81.235 108.184 77.683 113.56 74.995 119.704C72.307 125.848 70.963 132.376 70.963 139.288C70.963 146.2 72.307 152.728 74.995 158.872C77.683 165.016 81.235 170.392 85.651 175C90.259 179.416 95.635 182.968 101.779 185.656C107.923 188.344 114.451 189.688 121.363 189.688C128.467 189.688 135.091 188.344 141.235 185.656C147.379 182.968 152.659 179.416 157.075 175C161.683 170.392 165.235 165.016 167.731 158.872C170.419 152.728 171.763 146.2 171.763 139.288C171.763 132.376 170.419 125.848 167.731 119.704C165.235 113.56 161.683 108.184 157.075 103.576C152.659 98.968 147.379 95.416 141.235 92.92C135.091 90.232 128.467 88.888 121.363 88.888ZM277.533 213.592C269.469 213.592 261.885 212.056 254.781 208.984C247.869 205.912 241.821 201.784 236.637 196.6C231.453 191.416 227.325 185.368 224.253 178.456C221.373 171.352 219.933 163.864 219.933 155.992V66.712H244.413V155.992C244.413 160.6 245.277 164.92 247.005 168.952C248.733 172.984 251.037 176.536 253.917 179.608C256.989 182.488 260.541 184.792 264.573 186.52C268.605 188.248 272.925 189.112 277.533 189.112C282.141 189.112 286.365 188.248 290.205 186.52C294.237 184.792 297.693 182.488 300.573 179.608C303.645 176.536 306.045 172.984 307.773 168.952C309.501 164.92 310.365 160.6 310.365 155.992V66.712H335.133V155.992C335.133 163.864 333.597 171.352 330.525 178.456C327.453 185.368 323.325 191.416 318.141 196.6C312.957 201.784 306.813 205.912 299.709 208.984C292.797 212.056 285.405 213.592 277.533 213.592ZM433.128 63.832C443.496 63.832 453.192 65.848 462.216 69.88C471.432 73.72 479.4 79 486.12 85.72C493.032 92.44 498.408 100.408 502.247 109.624C506.28 118.84 508.296 128.632 508.296 139C508.296 149.368 506.28 159.16 502.247 168.376C498.408 177.4 493.032 185.272 486.12 191.992C479.4 198.712 471.432 204.088 462.216 208.12C453.192 211.96 443.496 213.88 433.128 213.88C422.76 213.88 413.064 211.96 404.04 208.12C395.015 204.088 387.047 198.712 380.135 191.992C373.415 185.272 368.039 177.4 364.007 168.376C360.167 159.16 358.247 149.368 358.247 139C358.247 128.632 360.167 118.84 364.007 109.624C368.039 100.408 373.415 92.44 380.135 85.72C387.047 79 395.015 73.72 404.04 69.88C413.064 65.848 422.76 63.832 433.128 63.832ZM433.128 88.6C426.216 88.6 419.687 89.944 413.543 92.632C407.399 95.128 402.024 98.68 397.415 103.288C392.807 107.896 389.159 113.272 386.471 119.416C383.975 125.56 382.727 132.088 382.727 139C382.727 145.912 383.975 152.44 386.471 158.584C389.159 164.728 392.807 170.104 397.415 174.712C402.024 179.128 407.399 182.68 413.543 185.368C419.687 188.056 426.216 189.4 433.128 189.4C440.04 189.4 446.567 188.056 452.712 185.368C458.856 182.68 464.232 179.128 468.839 174.712C473.448 170.104 477 164.728 479.496 158.584C482.184 152.44 483.528 145.912 483.528 139C483.528 132.088 482.184 125.56 479.496 119.416C477 113.272 473.448 107.896 468.839 103.288C464.232 98.68 458.856 95.128 452.712 92.632C446.567 89.944 440.04 88.6 433.128 88.6ZM567.819 149.656C562.443 149.656 557.355 148.696 552.555 146.776C547.947 144.856 543.819 142.264 540.171 139C536.523 135.544 533.547 131.512 531.243 126.904C529.131 122.296 527.979 117.304 527.787 111.928C527.595 110.776 527.499 109.336 527.499 107.608C527.499 105.688 527.595 104.152 527.787 103C527.979 97.816 529.131 92.92 531.243 88.312C533.547 83.704 536.523 79.672 540.171 76.216C543.819 72.76 547.947 70.072 552.555 68.152C557.355 66.232 562.443 65.272 567.819 65.272H623.115V90.04H567.819C563.787 90.04 560.235 91.48 557.163 94.36C554.283 97.048 552.651 100.504 552.267 104.728C551.883 106.648 551.883 108.664 552.267 110.776C552.651 114.808 554.283 118.264 557.163 121.144C560.235 123.832 563.787 125.176 567.819 125.176H587.691C593.067 125.176 598.155 126.232 602.955 128.344C607.755 130.264 611.883 132.952 615.339 136.408C618.987 139.864 621.867 143.896 623.979 148.504C626.283 153.112 627.531 158.104 627.723 163.48V171.544C627.723 177.112 626.571 182.296 624.267 187.096C622.155 191.704 619.275 195.832 615.627 199.48C612.171 203.128 607.947 206.008 602.955 208.12C598.155 210.04 592.971 211 587.403 211H530.667V186.52H587.403C591.243 186.52 594.507 185.272 597.195 182.776C600.075 180.28 601.995 177.304 602.955 173.848V172.696C602.955 172.312 602.955 172.024 602.955 171.832C603.147 171.448 603.243 171.064 603.243 170.68V165.208C603.051 160.792 601.419 157.144 598.347 154.264C595.467 151.192 591.819 149.656 587.403 149.656H567.819Z" fill="#E0EBF4"/>
</svg>
